<?xml version="1.0" encoding="UTF-8" standalone="no"?>
<!DOCTYPE svg PUBLIC "-//W3C//DTD SVG 1.1//EN" "http://www.w3.org/Graphics/SVG/1.1/DTD/svg11.dtd">
<svg width="100%" height="100%" viewBox="40 40 254 256" version="1.1" xmlns="http://www.w3.org/2000/svg" xmlns:xlink="http://www.w3.org/1999/xlink" xml:space="preserve"  style="fill-rule:evenodd;clip-rule:evenodd;stroke-linejoin:round;stroke-miterlimit:2;">
    <g id="Layer_1" transform="matrix(1,0,0,1,115.613,70)">
        <path d="M61.828,45.056C53.267,5.407 18.874,-0 18.874,-0C17.072,25.532 4.006,30.338 0.552,56.771C-3.954,91.464 20.527,101.677 24.131,103.029C17.973,59.024 62.279,47.009 61.828,45.056Z" style="fill:rgb(126,145,92);fill-rule:nonzero;"/>
        <path d="M93.067,26.583C73.843,43.404 61.227,37.547 40.201,53.767C12.416,74.944 22.479,99.574 24.131,102.879C41.252,79.299 61.378,74.643 61.378,74.643C43.055,83.504 29.388,105.432 23.981,115.194C22.779,117.447 24.281,120 26.834,120L31.34,120C32.542,120 33.743,119.249 34.344,118.048C34.945,116.696 35.996,114.894 37.047,112.791C49.963,117.297 70.539,116.546 88.111,93.417C115.746,57.372 93.067,26.583 93.067,26.583Z" style="fill:rgb(151,171,60);fill-rule:nonzero;"/>
    </g>
    <g transform="matrix(1,0,0,1,70,249.004)">
        <g>
            <path d="M9.82,0.95L11.82,0.95L11.82,16.28L9.82,16.28L9.82,9.33L2.01,9.33L2.01,16.28L-0,16.28L-0,0.95L2.01,0.95L2.01,7.68L9.82,7.68L9.82,0.95ZM26.23,9.79C26.23,10.17 26.207,10.573 26.16,11L16.53,11C16.603,12.187 17.01,13.113 17.75,13.78C18.49,14.447 19.387,14.78 20.44,14.78C21.307,14.78 22.03,14.58 22.61,14.18C23.19,13.773 23.597,13.233 23.83,12.56L25.99,12.56C25.663,13.72 25.017,14.663 24.05,15.39C23.083,16.117 21.88,16.48 20.44,16.48C19.3,16.48 18.277,16.223 17.37,15.71C16.47,15.197 15.763,14.467 15.25,13.52C14.737,12.573 14.48,11.477 14.48,10.23C14.48,8.983 14.73,7.89 15.23,6.95C15.73,6.01 16.43,5.287 17.33,4.78C18.23,4.28 19.267,4.03 20.44,4.03C21.587,4.03 22.6,4.277 23.48,4.77C24.36,5.27 25.037,5.957 25.51,6.83C25.99,7.703 26.23,8.69 26.23,9.79ZM24.16,9.37C24.16,8.61 23.99,7.953 23.65,7.4C23.317,6.853 22.86,6.437 22.28,6.15C21.7,5.863 21.057,5.72 20.35,5.72C19.343,5.72 18.483,6.043 17.77,6.69C17.057,7.337 16.65,8.23 16.55,9.37L24.16,9.37ZM28.12,10.21C28.12,8.977 28.37,7.893 28.87,6.96C29.37,6.033 30.053,5.313 30.92,4.8C31.793,4.287 32.767,4.03 33.84,4.03C34.893,4.03 35.81,4.257 36.59,4.71C37.37,5.163 37.95,5.733 38.33,6.42L38.33,4.22L40.35,4.22L40.35,16.28L38.33,16.28L38.33,14.04C37.93,14.74 37.34,15.32 36.56,15.78C35.773,16.247 34.86,16.48 33.82,16.48C32.747,16.48 31.777,16.217 30.91,15.69C30.05,15.157 29.37,14.413 28.87,13.46C28.37,12.507 28.12,11.423 28.12,10.21ZM38.33,10.23C38.33,9.323 38.147,8.53 37.78,7.85C37.413,7.177 36.917,6.66 36.29,6.3C35.67,5.94 34.987,5.76 34.24,5.76C33.487,5.76 32.803,5.937 32.19,6.29C31.577,6.643 31.087,7.157 30.72,7.83C30.353,8.503 30.17,9.297 30.17,10.21C30.17,11.13 30.353,11.933 30.72,12.62C31.087,13.3 31.577,13.82 32.19,14.18C32.803,14.54 33.487,14.72 34.24,14.72C34.987,14.72 35.67,14.54 36.29,14.18C36.917,13.82 37.413,13.3 37.78,12.62C38.147,11.933 38.33,11.137 38.33,10.23ZM43.74,-0L45.74,-0L45.74,16.28L43.74,16.28L43.74,-0ZM54.74,5.87L51.59,5.87L51.59,12.98C51.59,13.567 51.717,13.98 51.97,14.22C52.217,14.467 52.65,14.59 53.27,14.59L54.74,14.59L54.74,16.28L52.94,16.28C51.82,16.28 50.983,16.023 50.43,15.51C49.87,14.997 49.59,14.153 49.59,12.98L49.59,5.87L48.03,5.87L48.03,4.22L49.59,4.22L49.59,1.19L51.59,1.19L51.59,4.22L54.74,4.22L54.74,5.87ZM63.14,4C64.053,4 64.877,4.197 65.61,4.59C66.343,4.977 66.917,5.56 67.33,6.34C67.75,7.113 67.96,8.057 67.96,9.17L67.96,16.28L65.98,16.28L65.98,9.46C65.98,8.26 65.68,7.34 65.08,6.7C64.48,6.06 63.66,5.74 62.62,5.74C61.56,5.74 60.72,6.07 60.1,6.73C59.473,7.39 59.16,8.35 59.16,9.61L59.16,16.28L57.16,16.28L57.16,-0L59.16,-0L59.16,5.94C59.56,5.327 60.107,4.85 60.8,4.51C61.5,4.17 62.28,4 63.14,4ZM91.5,16.28L88.88,16.28L86.88,14.26C86.133,15.033 85.333,15.607 84.48,15.98C83.633,16.353 82.673,16.54 81.6,16.54C80.547,16.54 79.613,16.35 78.8,15.97C77.987,15.59 77.353,15.047 76.9,14.34C76.453,13.64 76.23,12.82 76.23,11.88C76.23,10.807 76.537,9.863 77.15,9.05C77.757,8.237 78.653,7.597 79.84,7.13C79.373,6.57 79.037,6.057 78.83,5.59C78.623,5.117 78.52,4.603 78.52,4.05C78.52,3.403 78.687,2.82 79.02,2.3C79.347,1.78 79.82,1.373 80.44,1.08C81.053,0.787 81.763,0.64 82.57,0.64C83.363,0.64 84.053,0.793 84.64,1.1C85.227,1.407 85.667,1.837 85.96,2.39C86.253,2.937 86.383,3.547 86.35,4.22L84.35,4.22C84.363,3.62 84.197,3.147 83.85,2.8C83.497,2.46 83.04,2.29 82.48,2.29C81.893,2.29 81.42,2.453 81.06,2.78C80.7,3.113 80.52,3.537 80.52,4.05C80.52,4.49 80.643,4.913 80.89,5.32C81.13,5.733 81.537,6.24 82.11,6.84L86.68,11.44L87.08,10.82L88.58,8.32L90.73,8.32L88.93,11.44C88.677,11.88 88.383,12.343 88.05,12.83L91.5,16.28ZM81.6,14.83C82.393,14.83 83.11,14.677 83.75,14.37C84.383,14.057 84.987,13.58 85.56,12.94L81.05,8.4C79.177,9.12 78.24,10.257 78.24,11.81C78.24,12.677 78.55,13.397 79.17,13.97C79.797,14.543 80.607,14.83 81.6,14.83ZM116.36,0.95L118.52,0.95L114.07,16.28L111.83,16.28L108.27,3.94L104.57,16.28L102.35,16.3L98.06,0.95L100.19,0.95L103.54,13.95L107.23,0.95L109.48,0.95L113,13.9L116.36,0.95ZM131.72,9.79C131.72,10.17 131.697,10.573 131.65,11L122.02,11C122.093,12.187 122.5,13.113 123.24,13.78C123.98,14.447 124.877,14.78 125.93,14.78C126.797,14.78 127.52,14.58 128.1,14.18C128.68,13.773 129.087,13.233 129.32,12.56L131.48,12.56C131.153,13.72 130.507,14.663 129.54,15.39C128.573,16.117 127.37,16.48 125.93,16.48C124.79,16.48 123.767,16.223 122.86,15.71C121.96,15.197 121.253,14.467 120.74,13.52C120.227,12.573 119.97,11.477 119.97,10.23C119.97,8.983 120.22,7.89 120.72,6.95C121.22,6.01 121.92,5.287 122.82,4.78C123.72,4.28 124.757,4.03 125.93,4.03C127.077,4.03 128.09,4.277 128.97,4.77C129.85,5.27 130.527,5.957 131,6.83C131.48,7.703 131.72,8.69 131.72,9.79ZM129.65,9.37C129.65,8.61 129.48,7.953 129.14,7.4C128.807,6.853 128.35,6.437 127.77,6.15C127.19,5.863 126.547,5.72 125.84,5.72C124.833,5.72 123.973,6.043 123.26,6.69C122.547,7.337 122.14,8.23 122.04,9.37L129.65,9.37ZM134.36,-0L136.36,-0L136.36,16.28L134.36,16.28L134.36,-0ZM139.77,-0L141.77,-0L141.77,16.28L139.77,16.28L139.77,-0ZM151.06,4C152.527,4 153.713,4.443 154.62,5.33C155.527,6.223 155.98,7.503 155.98,9.17L155.98,16.28L154,16.28L154,9.46C154,8.26 153.7,7.34 153.1,6.7C152.5,6.06 151.68,5.74 150.64,5.74C149.58,5.74 148.74,6.07 148.12,6.73C147.493,7.39 147.18,8.35 147.18,9.61L147.18,16.28L145.18,16.28L145.18,4.22L147.18,4.22L147.18,5.94C147.58,5.327 148.12,4.85 148.8,4.51C149.48,4.17 150.233,4 151.06,4ZM170.26,9.79C170.26,10.17 170.24,10.573 170.2,11L160.56,11C160.633,12.187 161.04,13.113 161.78,13.78C162.52,14.447 163.42,14.78 164.48,14.78C165.34,14.78 166.06,14.58 166.64,14.18C167.22,13.773 167.627,13.233 167.86,12.56L170.02,12.56C169.7,13.72 169.053,14.663 168.08,15.39C167.113,16.117 165.913,16.48 164.48,16.48C163.333,16.48 162.31,16.223 161.41,15.71C160.503,15.197 159.793,14.467 159.28,13.52C158.767,12.573 158.51,11.477 158.51,10.23C158.51,8.983 158.76,7.89 159.26,6.95C159.76,6.01 160.46,5.287 161.36,4.78C162.267,4.28 163.307,4.03 164.48,4.03C165.62,4.03 166.63,4.277 167.51,4.77C168.39,5.27 169.07,5.957 169.55,6.83C170.023,7.703 170.26,8.69 170.26,9.79ZM168.19,9.37C168.19,8.61 168.023,7.953 167.69,7.4C167.35,6.853 166.89,6.437 166.31,6.15C165.73,5.863 165.09,5.72 164.39,5.72C163.377,5.72 162.513,6.043 161.8,6.69C161.093,7.337 160.687,8.23 160.58,9.37L168.19,9.37ZM177.17,16.48C176.243,16.48 175.413,16.32 174.68,16C173.947,15.687 173.37,15.247 172.95,14.68C172.523,14.12 172.287,13.473 172.24,12.74L174.31,12.74C174.37,13.34 174.653,13.83 175.16,14.21C175.667,14.59 176.33,14.78 177.15,14.78C177.91,14.78 178.51,14.613 178.95,14.28C179.39,13.94 179.61,13.513 179.61,13C179.61,12.473 179.377,12.08 178.91,11.82C178.437,11.567 177.71,11.317 176.73,11.07C175.837,10.83 175.107,10.59 174.54,10.35C173.973,10.11 173.49,9.75 173.09,9.27C172.683,8.797 172.48,8.17 172.48,7.39C172.48,6.777 172.663,6.213 173.03,5.7C173.397,5.187 173.92,4.78 174.6,4.48C175.273,4.18 176.043,4.03 176.91,4.03C178.243,4.03 179.32,4.367 180.14,5.04C180.96,5.713 181.4,6.637 181.46,7.81L179.46,7.81C179.413,7.177 179.16,6.67 178.7,6.29C178.24,5.91 177.62,5.72 176.84,5.72C176.12,5.72 175.547,5.873 175.12,6.18C174.7,6.487 174.49,6.89 174.49,7.39C174.49,7.79 174.617,8.117 174.87,8.37C175.13,8.63 175.453,8.837 175.84,8.99C176.227,9.143 176.767,9.313 177.46,9.5C178.32,9.74 179.023,9.973 179.57,10.2C180.11,10.427 180.573,10.767 180.96,11.22C181.353,11.673 181.557,12.267 181.57,13C181.57,13.66 181.387,14.253 181.02,14.78C180.653,15.313 180.137,15.73 179.47,16.03C178.803,16.33 178.037,16.48 177.17,16.48ZM188.65,16.48C187.73,16.48 186.903,16.32 186.17,16C185.437,15.687 184.857,15.247 184.43,14.68C184.003,14.12 183.77,13.473 183.73,12.74L185.79,12.74C185.85,13.34 186.133,13.83 186.64,14.21C187.147,14.59 187.81,14.78 188.63,14.78C189.397,14.78 190,14.613 190.44,14.28C190.88,13.94 191.1,13.513 191.1,13C191.1,12.473 190.863,12.08 190.39,11.82C189.923,11.567 189.197,11.317 188.21,11.07C187.317,10.83 186.587,10.59 186.02,10.35C185.46,10.11 184.977,9.75 184.57,9.27C184.17,8.797 183.97,8.17 183.97,7.39C183.97,6.777 184.153,6.213 184.52,5.7C184.887,5.187 185.407,4.78 186.08,4.48C186.753,4.18 187.523,4.03 188.39,4.03C189.723,4.03 190.8,4.367 191.62,5.04C192.447,5.713 192.887,6.637 192.94,7.81L190.94,7.81C190.9,7.177 190.647,6.67 190.18,6.29C189.72,5.91 189.1,5.72 188.32,5.72C187.607,5.72 187.037,5.873 186.61,6.18C186.183,6.487 185.97,6.89 185.97,7.39C185.97,7.79 186.097,8.117 186.35,8.37C186.61,8.63 186.933,8.837 187.32,8.99C187.713,9.143 188.253,9.313 188.94,9.5C189.807,9.74 190.51,9.973 191.05,10.2C191.597,10.427 192.063,10.767 192.45,11.22C192.837,11.673 193.037,12.267 193.05,13C193.05,13.66 192.867,14.253 192.5,14.78C192.133,15.313 191.617,15.73 190.95,16.03C190.283,16.33 189.517,16.48 188.65,16.48Z" style="fill:white;fill-rule:nonzero;"/>
        </g>
    </g>
    <g transform="matrix(1,0,0,1,115.135,199.004)">
        <g>
            <path d="M29.58,42.92L19.03,42.92L8.12,29.23L8.12,42.92L0,42.92L0,0L8.12,0L8.12,24.42L18.91,10.79L29.47,10.79L15.31,26.91L29.58,42.92ZM73.78,10.32C77.72,10.32 80.9,11.53 83.32,13.95C85.733,16.363 86.94,19.737 86.94,24.07L86.94,42.92L78.82,42.92L78.82,25.17C78.82,22.657 78.183,20.733 76.91,19.4C75.637,18.067 73.897,17.4 71.69,17.4C69.483,17.4 67.733,18.067 66.44,19.4C65.147,20.733 64.5,22.657 64.5,25.17L64.5,42.92L56.38,42.92L56.38,25.17C56.38,22.657 55.74,20.733 54.46,19.4C53.187,18.067 51.447,17.4 49.24,17.4C47,17.4 45.233,18.067 43.94,19.4C42.64,20.733 41.99,22.657 41.99,25.17L41.99,42.92L33.87,42.92L33.87,10.79L41.99,10.79L41.99,14.67C43.037,13.317 44.383,12.253 46.03,11.48C47.67,10.707 49.477,10.32 51.45,10.32C53.963,10.32 56.207,10.853 58.18,11.92C60.147,12.98 61.673,14.497 62.76,16.47C63.8,14.617 65.317,13.13 67.31,12.01C69.303,10.883 71.46,10.32 73.78,10.32ZM94.66,0L102.78,0L102.78,42.92L94.66,42.92L94.66,0Z" style="fill:white;fill-rule:nonzero;"/>
        </g>
    </g>
</svg>
